<svg width="60" height="60" viewBox="0 0 60 60" fill="none" xmlns="http://www.w3.org/2000/svg">
    <path d="M30.0044 57.9343C39.8093 57.9343 47.7551 49.9885 47.7551 40.1833V19.8088C47.7551 10.0042 39.8093 2.05811 30.0044 2.05811C20.1995 2.05811 12.2534 10.0042 12.2534 19.8088V40.1839C12.2534 49.9885 20.1995 57.9343 30.0044 57.9343ZM15.7988 19.801C15.7988 11.9617 22.157 5.60351 30.0044 5.60351C37.8515 5.60351 44.2019 11.962 44.2019 19.801V40.192C44.2019 48.0307 37.8434 54.3892 30.0044 54.3892C22.157 54.3892 15.7988 48.0307 15.7988 40.192V19.801Z" fill="#0085FF"/>
    <path d="M30.6354 29.9752C32.7089 31.4317 33.1971 31.3859 34.9127 29.742C36.5099 28.2147 38.1119 26.6919 39.8868 25C36.7137 25 33.7658 25 30.6686 25C30.6686 26.4885 30.6686 27.9815 30.6686 29.4745C30.5548 29.5362 30.4411 29.598 30.3249 29.6597C29.2254 28.5462 28.1519 27.4076 27.0239 26.3215C25.3533 24.7142 23.9101 24.7645 22.2086 26.3124C21.0001 27.4122 20.1019 28.9395 18 29.2047C20.0119 30.069 20.3508 31.5894 20.237 33.334C20.0427 36.3429 20.5996 39.1391 22.6091 41.5856C25.2798 44.8391 29.851 46.355 34.0525 45.285C38.2825 44.2081 41.5883 40.6436 42.1025 36.4983C42.285 35.0327 42.2755 33.5443 42.375 31.706C41.83 32.1725 41.5172 32.4125 41.2399 32.6823C38.9863 34.8681 36.7445 37.0654 34.4862 39.2466C33.8416 39.8685 33.1662 40.5018 32.1165 40.2C31.2278 39.9439 30.6614 39.3609 30.6496 38.4715C30.6093 35.7004 30.6354 32.9224 30.6354 29.9752ZM24.8177 29.0515C24.7964 30.0164 24.1826 30.6131 23.4101 30.6063C22.6139 30.5994 21.8769 29.8769 21.9693 29.1315C22.0712 28.3039 22.602 27.8123 23.4646 27.8489C24.3153 27.8809 24.8224 28.3587 24.8177 29.0515Z" fill="#0085FF"/>
</svg>
