<svg width="64" height="42" viewBox="0 0 64 42" fill="none" xmlns="http://www.w3.org/2000/svg">
    <g clip-path="url(#clip0_12_70)">
        <path d="M0.353431 16.7135C8.92848 16.7135 17.5006 16.7135 26.5682 16.7135C24.549 14.9519 22.834 13.4573 21.119 11.9598C21.2551 11.7624 21.3884 11.5651 21.5245 11.3677C25.1429 11.3677 28.7641 11.3677 32.4983 11.3677C32.4983 7.48756 32.4983 3.78731 32.4983 0C36.3281 3.83085 40.0536 7.56012 43.9384 11.4432C44.5989 10.6973 45.0712 10.0821 45.6216 9.5539C48.8894 6.42247 53.6926 6.44859 56.9314 9.62645C59.2374 11.8872 61.4999 14.1915 64.0029 16.6961C62.9281 16.6961 62.0996 16.6961 61.0625 16.6961C61.0625 18.8756 61.2247 20.9013 61.0219 22.8922C60.7554 25.51 60.5671 28.2264 59.7009 30.6729C56.9806 38.3607 49.0313 42.891 40.6649 41.852C33.0255 40.903 26.5682 34.4138 25.5455 26.6534C25.4383 25.8466 25.3254 25.0398 25.1921 24.0589C24.6764 24.0589 24.1608 24.0589 23.6451 24.0589C18.6247 24.0618 13.6042 24.0444 8.58664 24.0821C7.60167 24.0908 6.88901 23.8035 6.17635 23.0896C4.16875 21.0813 2.06554 19.1629 0 17.2098C0.118776 17.0444 0.234655 16.8789 0.353431 16.7135ZM43.9182 17.7438C43.9182 21.4847 43.9471 25.0108 43.9008 28.534C43.8863 29.6629 43.1939 30.4059 42.1076 30.728C40.8242 31.1111 39.9986 30.3101 39.2106 29.5178C36.4498 26.7492 33.7092 23.9602 30.9542 21.1857C30.6123 20.8433 30.2328 20.5386 29.5665 19.9465C29.6853 22.277 29.6766 24.1663 29.8997 26.0294C30.5283 31.291 34.5696 35.8155 39.7407 37.1824C44.8771 38.5406 50.4653 36.6165 53.7302 32.4867C56.184 29.3814 56.8676 25.8321 56.6301 22.0129C56.491 19.7985 56.9053 17.8686 59.3648 16.7716C56.7952 16.4349 55.6973 14.4963 54.2198 13.1003C52.1398 11.1356 50.3726 11.0717 48.3331 13.1119C46.9542 14.4905 45.639 15.9328 44.2977 17.3491C44.1586 17.2707 44.0196 17.1924 43.8776 17.114C43.8776 15.2189 43.8776 13.3238 43.8776 11.4345C40.0913 11.4345 36.4903 11.4345 32.6084 11.4345C34.7782 13.5821 36.7366 15.5149 38.6891 17.4536C40.7894 19.5344 41.3862 19.5925 43.9182 17.7438Z" fill="black"/>
        <path d="M43.9182 17.7438C41.3833 19.5925 40.7865 19.5344 38.6891 17.4478C36.7365 15.5091 34.7782 13.5763 32.6084 11.4287C36.4874 11.4287 40.0912 11.4287 43.8776 11.4287C43.8776 13.318 43.8776 15.2131 43.8776 17.1082C44.0166 17.1866 44.1557 17.2649 44.2977 17.3433C45.6419 15.93 46.9542 14.4847 48.3331 13.1062C50.3755 11.0659 52.1398 11.1298 54.2198 13.0945C55.6973 14.4905 56.7952 16.4291 59.3648 16.7658C56.9053 17.8628 56.491 19.7927 56.6301 22.0071C56.8676 25.8263 56.1868 29.3756 53.7302 32.4809C50.4653 36.6107 44.877 38.5348 39.7407 37.1766C34.5696 35.8097 30.5283 31.2853 29.8997 26.0237C29.6766 24.1634 29.6882 22.2741 29.5665 19.9407C30.2328 20.5328 30.6152 20.8375 30.9542 21.18C33.7092 23.9544 36.4497 26.7434 39.2106 29.512C39.9985 30.3014 40.8242 31.1053 42.1075 30.7222C43.1939 30.3972 43.8863 29.6572 43.9008 28.5282C43.95 25.0108 43.9182 21.4847 43.9182 17.7438ZM51.0302 16.5713C51.0563 17.796 51.8066 18.5535 52.751 18.5448C53.7244 18.5361 54.6254 17.619 54.5124 16.6729C54.3878 15.6223 53.7389 14.9984 52.6844 15.0448C51.6444 15.0854 51.0244 15.692 51.0302 16.5713Z" fill="white"/>
        <path d="M51.0303 16.5714C51.0245 15.692 51.6444 15.0884 52.6844 15.042C53.736 14.9955 54.3878 15.6224 54.5124 16.6701C54.6254 17.6191 53.7244 18.5333 52.7511 18.542C51.8037 18.5536 51.0563 17.7932 51.0303 16.5714Z" fill="black"/>
    </g>
    <defs>
        <clipPath id="clip0_12_70">
            <rect width="64" height="42" fill="white"/>
        </clipPath>
    </defs>
</svg>
